<?xml version="1.0" encoding="utf-8"?>
<svg xmlns="http://www.w3.org/2000/svg" width="165" height="165" class="segno"><path transform="scale(5)" stroke="#000" class="qrline" d="M4 4.5h7m1 0h2m2 0h2m1 0h2m1 0h7m-25 1h1m5 0h1m1 0h4m3 0h2m1 0h1m5 0h1m-25 1h1m1 0h3m1 0h1m2 0h1m4 0h1m3 0h1m1 0h3m1 0h1m-25 1h1m1 0h3m1 0h1m2 0h1m2 0h2m2 0h1m1 0h1m1 0h3m1 0h1m-25 1h1m1 0h3m1 0h1m1 0h2m3 0h4m1 0h1m1 0h3m1 0h1m-25 1h1m5 0h1m1 0h2m1 0h1m2 0h1m3 0h1m5 0h1m-25 1h7m1 0h1m1 0h1m1 0h1m1 0h1m1 0h1m1 0h7m-17 1h1m2 0h3m1 0h2m-17 1h3m2 0h2m1 0h4m3 0h1m1 0h4m2 0h2m-25 1h1m2 0h2m2 0h1m3 0h2m2 0h2m4 0h1m1 0h1m-24 1h3m1 0h1m1 0h1m2 0h2m1 0h1m2 0h1m2 0h2m1 0h1m-20 1h2m1 0h1m2 0h1m2 0h3m1 0h2m1 0h1m2 0h3m-24 1h1m2 0h2m1 0h1m2 0h4m2 0h1m2 0h1m3 0h3m-24 1h1m5 0h3m2 0h1m1 0h1m3 0h4m-22 1h3m1 0h1m1 0h2m2 0h1m1 0h1m2 0h2m1 0h2m1 0h1m2 0h1m-23 1h1m2 0h1m1 0h1m3 0h2m1 0h3m1 0h2m1 0h1m-22 1h5m1 0h4m1 0h2m2 0h6m1 0h2m-16 1h1m1 0h1m3 0h1m1 0h1m3 0h2m1 0h2m-25 1h7m2 0h1m1 0h2m1 0h3m1 0h1m1 0h2m1 0h2m-25 1h1m5 0h1m1 0h4m4 0h1m3 0h2m1 0h2m-25 1h1m1 0h3m1 0h1m2 0h16m-25 1h1m1 0h3m1 0h1m5 0h1m3 0h1m2 0h2m2 0h1m-24 1h1m1 0h3m1 0h1m1 0h1m2 0h1m3 0h2m1 0h4m1 0h2m-25 1h1m5 0h1m1 0h1m1 0h4m2 0h2m1 0h2m2 0h2m-25 1h7m1 0h2m1 0h1m1 0h4m3 0h5"/></svg>
