<?xml version="1.0" encoding="utf-8"?>
<svg xmlns="http://www.w3.org/2000/svg" width="165" height="165" class="segno"><g transform="scale(5)"><path fill="#fff" d="M0 0h33v33h-33z"/><path class="qrline" stroke="#000" d="M4 4.5h7m1 0h2m1 0h1m1 0h1m1 0h1m2 0h7m-25 1h1m5 0h1m2 0h2m1 0h1m2 0h1m2 0h1m5 0h1m-25 1h1m1 0h3m1 0h1m2 0h3m2 0h1m3 0h1m1 0h3m1 0h1m-25 1h1m1 0h3m1 0h1m7 0h1m1 0h1m1 0h1m1 0h3m1 0h1m-25 1h1m1 0h3m1 0h1m2 0h2m1 0h1m2 0h1m2 0h1m1 0h3m1 0h1m-25 1h1m5 0h1m2 0h1m1 0h1m1 0h1m2 0h1m1 0h1m5 0h1m-25 1h7m1 0h1m1 0h1m1 0h1m1 0h1m1 0h1m1 0h7m-17 1h2m1 0h1m1 0h3m-16 1h2m1 0h2m1 0h1m2 0h1m2 0h2m1 0h2m1 0h1m5 0h1m-23 1h2m1 0h1m1 0h1m4 0h1m1 0h1m3 0h7m-25 1h1m2 0h2m1 0h4m1 0h3m4 0h1m-19 1h2m1 0h1m4 0h1m1 0h1m1 0h1m1 0h2m1 0h1m1 0h1m4 0h1m-23 1h1m2 0h7m1 0h1m1 0h5m2 0h3m-25 1h1m1 0h2m1 0h1m2 0h2m3 0h2m1 0h6m2 0h1m-25 1h3m3 0h2m2 0h1m1 0h1m1 0h1m1 0h3m1 0h2m1 0h2m-25 1h1m2 0h2m3 0h1m2 0h1m3 0h1m1 0h1m1 0h5m-24 1h1m1 0h1m3 0h3m2 0h10m2 0h1m-16 1h2m1 0h1m3 0h2m3 0h5m-25 1h7m2 0h2m1 0h1m2 0h2m1 0h1m1 0h1m3 0h1m-25 1h1m5 0h1m4 0h1m2 0h1m1 0h1m3 0h1m2 0h1m-24 1h1m1 0h3m1 0h1m1 0h3m1 0h1m1 0h7m3 0h1m-25 1h1m1 0h3m1 0h1m1 0h1m2 0h2m3 0h1m2 0h4m1 0h1m-25 1h1m1 0h3m1 0h1m3 0h4m4 0h3m1 0h3m-25 1h1m5 0h1m1 0h3m3 0h1m2 0h2m1 0h3m-23 1h7m1 0h2m1 0h1m1 0h1m1 0h1m1 0h2m1 0h5"/></g></svg>
