<?xml version="1.0" encoding="utf-8"?>
<svg xmlns="http://www.w3.org/2000/svg" width="245" height="245" class="segno"><path transform="scale(5)" stroke="#000" class="qrline" d="M4 4.5h7m2 0h1m1 0h1m4 0h1m1 0h2m1 0h3m4 0h1m2 0h2m1 0h7m-41 1h1m5 0h1m1 0h1m1 0h2m3 0h1m2 0h1m1 0h2m3 0h1m1 0h2m5 0h1m5 0h1m-41 1h1m1 0h3m1 0h1m2 0h2m3 0h2m2 0h4m2 0h1m2 0h2m1 0h1m1 0h1m1 0h1m1 0h3m1 0h1m-41 1h1m1 0h3m1 0h1m1 0h2m1 0h2m2 0h1m2 0h1m3 0h1m1 0h4m1 0h1m2 0h1m1 0h1m1 0h3m1 0h1m-41 1h1m1 0h3m1 0h1m3 0h1m1 0h1m1 0h3m1 0h1m2 0h4m3 0h1m1 0h3m1 0h1m1 0h3m1 0h1m-41 1h1m5 0h1m1 0h3m7 0h1m1 0h1m3 0h1m1 0h2m1 0h2m1 0h1m1 0h1m5 0h1m-41 1h7m1 0h1m1 0h1m1 0h1m1 0h1m1 0h1m1 0h1m1 0h1m1 0h1m1 0h1m1 0h1m1 0h1m1 0h1m1 0h1m1 0h7m-32 1h1m2 0h1m1 0h1m1 0h1m1 0h1m2 0h1m1 0h1m2 0h2m2 0h2m-32 1h5m1 0h4m3 0h2m2 0h1m1 0h2m2 0h5m1 0h1m2 0h2m1 0h1m1 0h1m1 0h1m-40 1h1m2 0h1m3 0h3m1 0h1m1 0h2m2 0h4m2 0h1m4 0h1m1 0h4m1 0h2m2 0h2m-41 1h2m2 0h1m1 0h3m1 0h8m2 0h2m2 0h1m1 0h3m1 0h1m6 0h2m-37 1h4m2 0h1m3 0h2m3 0h7m2 0h1m10 0h1m1 0h1m-40 1h1m3 0h1m1 0h2m6 0h3m2 0h2m1 0h1m1 0h4m1 0h1m2 0h1m4 0h4m-36 1h1m2 0h1m3 0h1m2 0h1m1 0h5m1 0h1m1 0h1m3 0h1m1 0h2m1 0h4m2 0h1m-41 1h1m2 0h2m1 0h1m1 0h1m1 0h1m2 0h1m1 0h2m1 0h1m1 0h2m4 0h4m3 0h1m2 0h2m-37 1h1m1 0h2m4 0h1m2 0h1m1 0h2m5 0h1m2 0h1m1 0h2m9 0h1m-38 1h4m2 0h1m1 0h2m2 0h2m1 0h3m4 0h5m1 0h2m6 0h3m-39 1h2m2 0h2m1 0h1m3 0h1m4 0h1m2 0h3m1 0h1m1 0h1m2 0h2m1 0h1m1 0h2m1 0h2m1 0h2m-39 1h3m1 0h1m1 0h2m5 0h2m1 0h1m2 0h2m1 0h1m1 0h2m2 0h1m1 0h2m1 0h2m-37 1h4m4 0h1m1 0h2m2 0h1m4 0h4m1 0h1m2 0h1m5 0h2m2 0h1m1 0h1m-40 1h1m2 0h6m3 0h1m5 0h2m2 0h1m1 0h4m2 0h2m6 0h1m-32 1h3m4 0h3m2 0h5m3 0h2m1 0h2m1 0h4m1 0h3m-40 1h3m1 0h2m4 0h2m8 0h1m2 0h1m1 0h2m4 0h1m1 0h1m1 0h2m-33 1h1m1 0h1m3 0h1m4 0h1m1 0h1m1 0h3m1 0h1m1 0h2m3 0h3m2 0h1m-37 1h2m1 0h2m1 0h1m1 0h1m1 0h5m2 0h2m3 0h1m1 0h4m1 0h1m1 0h2m2 0h1m2 0h3m-41 1h2m5 0h1m1 0h1m1 0h1m1 0h2m1 0h3m1 0h6m3 0h9m2 0h1m-40 1h1m1 0h1m2 0h1m6 0h5m9 0h4m1 0h1m2 0h3m-38 1h1m7 0h1m4 0h1m2 0h4m1 0h3m2 0h1m3 0h1m1 0h1m3 0h2m1 0h1m-39 1h6m1 0h1m1 0h1m3 0h1m1 0h1m2 0h1m2 0h6m3 0h1m1 0h1m3 0h3m-40 1h1m2 0h3m1 0h1m4 0h1m2 0h1m2 0h7m5 0h5m1 0h2m-38 1h1m1 0h1m1 0h1m1 0h4m4 0h3m1 0h1m3 0h1m3 0h2m1 0h2m3 0h5m-39 1h1m1 0h1m1 0h1m3 0h3m1 0h1m2 0h1m2 0h2m1 0h2m4 0h2m1 0h1m1 0h2m1 0h3m2 0h1m-41 1h1m1 0h2m2 0h2m2 0h1m2 0h3m1 0h1m4 0h1m1 0h2m2 0h2m2 0h8m-32 1h1m2 0h1m4 0h1m1 0h1m2 0h1m1 0h1m4 0h3m1 0h1m3 0h1m2 0h2m-41 1h7m1 0h3m4 0h2m1 0h1m1 0h3m3 0h4m1 0h2m1 0h1m1 0h1m1 0h2m-40 1h1m5 0h1m4 0h1m2 0h1m1 0h1m4 0h1m1 0h2m1 0h3m2 0h2m3 0h2m1 0h1m-40 1h1m1 0h3m1 0h1m1 0h2m1 0h2m5 0h3m1 0h1m1 0h4m1 0h1m2 0h5m1 0h3m-41 1h1m1 0h3m1 0h1m1 0h3m2 0h5m1 0h3m1 0h1m2 0h1m2 0h2m2 0h1m6 0h1m-41 1h1m1 0h3m1 0h1m1 0h5m7 0h2m2 0h1m2 0h1m5 0h4m1 0h1m-39 1h1m5 0h1m1 0h1m1 0h2m4 0h1m1 0h1m1 0h4m3 0h1m2 0h4m2 0h2m1 0h1m-40 1h7m1 0h1m1 0h5m2 0h1m2 0h1m1 0h1m2 0h2m2 0h1m1 0h1m1 0h1m1 0h2m1 0h1"/></svg>
