<?xml version="1.0" encoding="utf-8"?>
<svg xmlns="http://www.w3.org/2000/svg" width="228" height="228" class="segno"><path transform="scale(4)" class="qrline" stroke="#000" d="M4 4.5h7m2 0h2m2 0h1m1 0h2m1 0h5m1 0h3m2 0h9m2 0h1m1 0h7m-49 1h1m5 0h1m2 0h2m1 0h1m1 0h1m3 0h1m2 0h3m1 0h2m1 0h1m1 0h1m6 0h4m1 0h1m5 0h1m-49 1h1m1 0h3m1 0h1m1 0h2m2 0h1m2 0h2m3 0h1m2 0h1m3 0h1m1 0h1m6 0h1m2 0h2m1 0h1m1 0h3m1 0h1m-49 1h1m1 0h3m1 0h1m4 0h2m1 0h1m3 0h1m2 0h3m1 0h3m1 0h2m2 0h2m2 0h1m1 0h1m2 0h1m1 0h3m1 0h1m-49 1h1m1 0h3m1 0h1m2 0h1m1 0h1m2 0h1m1 0h1m1 0h1m1 0h1m1 0h5m1 0h1m1 0h1m1 0h4m1 0h1m4 0h1m1 0h3m1 0h1m-49 1h1m5 0h1m3 0h1m2 0h2m2 0h2m3 0h1m3 0h1m1 0h9m1 0h1m3 0h1m5 0h1m-49 1h7m1 0h1m1 0h1m1 0h1m1 0h1m1 0h1m1 0h1m1 0h1m1 0h1m1 0h1m1 0h1m1 0h1m1 0h1m1 0h1m1 0h1m1 0h1m1 0h1m1 0h1m1 0h7m-41 1h1m4 0h1m1 0h1m3 0h1m1 0h2m3 0h1m1 0h6m3 0h1m1 0h2m-41 1h3m1 0h6m2 0h3m2 0h2m1 0h9m1 0h3m2 0h4m2 0h2m3 0h1m-47 1h2m1 0h1m3 0h5m1 0h2m2 0h1m4 0h2m4 0h1m3 0h1m2 0h2m4 0h1m1 0h4m-47 1h1m2 0h1m1 0h2m1 0h1m1 0h2m2 0h1m1 0h1m1 0h3m1 0h3m2 0h1m3 0h1m2 0h1m5 0h1m4 0h4m-49 1h1m1 0h1m4 0h6m2 0h1m4 0h1m3 0h4m1 0h1m1 0h2m1 0h1m1 0h2m1 0h5m3 0h2m-46 1h1m2 0h1m1 0h3m3 0h1m1 0h1m1 0h1m1 0h1m2 0h2m2 0h2m1 0h4m2 0h2m1 0h1m4 0h1m1 0h1m-47 1h1m3 0h2m3 0h1m1 0h1m4 0h1m3 0h1m11 0h1m4 0h1m1 0h1m7 0h1m-48 1h4m1 0h2m3 0h2m2 0h1m2 0h1m5 0h1m6 0h2m3 0h2m4 0h3m1 0h4m-49 1h2m6 0h5m3 0h2m2 0h1m2 0h1m2 0h4m1 0h2m1 0h2m2 0h1m1 0h1m1 0h1m1 0h1m3 0h1m-49 1h1m5 0h4m1 0h1m1 0h2m1 0h1m1 0h1m1 0h1m1 0h5m1 0h3m1 0h1m1 0h1m1 0h4m1 0h1m2 0h5m-49 1h2m2 0h1m4 0h1m1 0h4m3 0h1m4 0h2m3 0h1m3 0h2m7 0h1m1 0h1m2 0h2m-47 1h1m1 0h2m1 0h5m2 0h1m3 0h1m1 0h5m3 0h2m2 0h1m1 0h1m1 0h1m1 0h1m1 0h2m3 0h1m3 0h1m-46 1h1m1 0h1m1 0h1m1 0h7m1 0h2m2 0h1m1 0h2m1 0h2m3 0h6m1 0h1m4 0h1m1 0h1m-45 1h2m3 0h1m1 0h1m4 0h1m1 0h3m2 0h1m2 0h3m1 0h2m1 0h3m1 0h3m3 0h1m3 0h2m1 0h1m-48 1h2m1 0h1m1 0h1m1 0h1m4 0h2m1 0h1m1 0h1m1 0h1m1 0h1m9 0h2m3 0h2m5 0h1m1 0h1m1 0h1m-47 1h1m1 0h6m1 0h1m2 0h1m1 0h2m3 0h7m1 0h1m6 0h1m1 0h1m1 0h6m2 0h2m-47 1h1m1 0h1m3 0h1m3 0h1m2 0h1m1 0h3m2 0h1m3 0h3m1 0h6m1 0h1m2 0h1m3 0h1m-42 1h2m1 0h1m1 0h4m1 0h3m1 0h2m1 0h1m1 0h1m1 0h1m1 0h5m1 0h1m3 0h1m1 0h3m1 0h1m1 0h1m1 0h3m-49 1h1m3 0h1m3 0h1m1 0h1m1 0h1m1 0h1m2 0h2m3 0h1m3 0h3m2 0h2m3 0h1m3 0h1m3 0h4m-47 1h1m1 0h6m1 0h1m1 0h1m1 0h3m1 0h1m3 0h5m1 0h2m5 0h2m3 0h5m3 0h1m-49 1h2m5 0h5m7 0h2m2 0h1m1 0h3m2 0h2m2 0h4m2 0h2m6 0h1m-49 1h2m1 0h1m1 0h2m2 0h1m4 0h1m1 0h1m1 0h1m1 0h2m2 0h6m1 0h2m2 0h2m1 0h1m1 0h2m1 0h1m1 0h4m-42 1h3m2 0h1m3 0h1m2 0h1m1 0h1m9 0h3m1 0h1m1 0h1m2 0h1m1 0h1m3 0h2m-46 1h2m2 0h1m1 0h1m2 0h2m1 0h1m3 0h1m2 0h1m1 0h5m6 0h3m1 0h5m1 0h1m1 0h3m-45 1h1m2 0h1m1 0h1m1 0h1m1 0h1m2 0h1m2 0h3m3 0h1m2 0h2m2 0h5m1 0h3m1 0h1m2 0h1m1 0h2m-49 1h1m3 0h1m1 0h1m1 0h2m1 0h1m1 0h2m2 0h2m1 0h1m1 0h1m2 0h4m1 0h1m1 0h1m1 0h3m1 0h1m2 0h2m1 0h2m2 0h1m-48 1h2m1 0h1m7 0h3m2 0h3m1 0h2m5 0h1m3 0h1m2 0h2m2 0h1m7 0h2m-47 1h1m3 0h1m4 0h1m1 0h1m2 0h2m1 0h2m3 0h1m1 0h2m4 0h2m2 0h1m2 0h4m4 0h2m-47 1h1m7 0h2m1 0h6m1 0h1m1 0h4m1 0h1m4 0h1m1 0h2m2 0h1m4 0h1m3 0h2m-48 1h2m3 0h2m1 0h5m1 0h3m2 0h2m2 0h1m1 0h5m1 0h7m2 0h3m2 0h1m1 0h1m-49 1h3m5 0h2m1 0h1m1 0h1m1 0h1m1 0h1m1 0h1m1 0h2m2 0h1m3 0h1m1 0h3m1 0h3m2 0h1m1 0h1m2 0h3m-47 1h1m3 0h9m1 0h3m1 0h3m3 0h4m1 0h2m2 0h1m3 0h1m1 0h3m1 0h1m2 0h2m-48 1h3m4 0h2m1 0h1m1 0h1m1 0h1m1 0h2m1 0h9m1 0h1m1 0h1m3 0h1m2 0h2m1 0h1m-43 1h3m3 0h3m1 0h1m2 0h2m2 0h2m1 0h1m1 0h7m1 0h3m1 0h5m1 0h5m-37 1h1m4 0h2m2 0h3m2 0h1m3 0h3m2 0h1m4 0h2m2 0h1m3 0h2m2 0h1m-49 1h7m1 0h2m4 0h1m1 0h1m1 0h2m2 0h1m1 0h1m1 0h2m4 0h2m1 0h1m3 0h2m1 0h1m1 0h2m1 0h2m-49 1h1m5 0h1m1 0h2m2 0h1m8 0h2m3 0h2m2 0h2m1 0h2m1 0h5m3 0h1m3 0h1m-49 1h1m1 0h3m1 0h1m1 0h1m1 0h1m1 0h1m1 0h1m1 0h1m1 0h1m1 0h13m3 0h1m3 0h5m1 0h2m-48 1h1m1 0h3m1 0h1m3 0h1m1 0h1m3 0h1m2 0h1m1 0h1m2 0h1m1 0h4m1 0h2m2 0h2m3 0h2m3 0h4m-49 1h1m1 0h3m1 0h1m1 0h1m4 0h2m2 0h1m2 0h1m1 0h5m3 0h3m1 0h2m2 0h3m2 0h2m1 0h1m-47 1h1m5 0h1m1 0h1m3 0h1m3 0h1m1 0h1m2 0h2m2 0h1m1 0h2m3 0h1m2 0h2m1 0h1m1 0h1m6 0h1m-48 1h7m1 0h1m5 0h2m1 0h2m2 0h4m1 0h1m1 0h5m1 0h3m2 0h4m1 0h2m1 0h2"/></svg>
