<?xml version="1.0" encoding="utf-8"?>
<svg xmlns="http://www.w3.org/2000/svg" width="324" height="324" class="segno"><path transform="scale(4)" class="qrline" stroke="#000" d="M30 30.5h7m1 0h2m1 0h2m1 0h7m-21 1h1m5 0h1m2 0h1m1 0h2m1 0h1m5 0h1m-21 1h1m1 0h3m1 0h1m1 0h2m2 0h1m1 0h1m1 0h3m1 0h1m-21 1h1m1 0h3m1 0h1m1 0h4m2 0h1m1 0h3m1 0h1m-21 1h1m1 0h3m1 0h1m2 0h4m1 0h1m1 0h3m1 0h1m-21 1h1m5 0h1m1 0h3m3 0h1m5 0h1m-21 1h7m1 0h1m1 0h1m1 0h1m1 0h7m-13 1h3m-10 1h1m1 0h1m1 0h4m4 0h3m1 0h2m1 0h1m-20 1h3m4 0h3m1 0h1m1 0h3m1 0h3m-20 1h1m2 0h1m1 0h1m3 0h1m4 0h1m1 0h1m2 0h1m-21 1h1m1 0h1m1 0h1m3 0h5m1 0h1m1 0h2m1 0h1m-19 1h2m3 0h1m2 0h2m1 0h1m2 0h1m4 0h1m-13 1h1m1 0h6m2 0h1m-19 1h7m1 0h2m1 0h1m1 0h1m1 0h2m2 0h1m-20 1h1m5 0h1m1 0h2m1 0h3m1 0h2m-17 1h1m1 0h3m1 0h1m3 0h5m4 0h1m-20 1h1m1 0h3m1 0h1m1 0h1m4 0h3m1 0h4m-21 1h1m1 0h3m1 0h1m3 0h2m2 0h5m1 0h1m-21 1h1m5 0h1m1 0h5m2 0h3m-18 1h7m3 0h1m5 0h2m1 0h1"/></svg>
