<?xml version="1.0" encoding="utf-8"?>
<svg xmlns="http://www.w3.org/2000/svg" width="116" height="116" class="segno"><g transform="scale(4)"><path fill="#ff0" d="M0 0h29v29h-29z"/><path class="qrline" stroke="#00008b" d="M4 4.5h7m2 0h1m2 0h1m1 0h7m-21 1h1m5 0h1m5 0h1m1 0h1m5 0h1m-21 1h1m1 0h3m1 0h1m4 0h1m2 0h1m1 0h3m1 0h1m-21 1h1m1 0h3m1 0h1m5 0h1m1 0h1m1 0h3m1 0h1m-21 1h1m1 0h3m1 0h1m5 0h1m1 0h1m1 0h3m1 0h1m-21 1h1m5 0h1m1 0h3m3 0h1m5 0h1m-21 1h7m1 0h1m1 0h1m1 0h1m1 0h7m-10 1h1m-12 1h1m2 0h1m1 0h2m1 0h6m1 0h1m-16 1h2m1 0h1m1 0h1m2 0h1m1 0h2m1 0h4m1 0h3m-17 1h4m1 0h1m2 0h1m1 0h2m1 0h1m2 0h1m-21 1h1m1 0h1m1 0h1m3 0h3m3 0h1m1 0h2m1 0h2m-20 1h1m1 0h4m5 0h2m1 0h2m2 0h2m-13 1h3m1 0h2m1 0h2m1 0h1m-19 1h7m2 0h2m1 0h1m1 0h4m1 0h1m-20 1h1m5 0h1m1 0h2m5 0h1m1 0h1m-18 1h1m1 0h3m1 0h1m2 0h5m-14 1h1m1 0h3m1 0h1m1 0h4m2 0h4m1 0h2m-21 1h1m1 0h3m1 0h1m2 0h1m1 0h4m1 0h2m2 0h1m-21 1h1m5 0h1m3 0h2m3 0h2m-17 1h7m1 0h2m1 0h2m1 0h3m2 0h1"/></g></svg>
