<?xml version="1.0" encoding="utf-8"?>
<svg xmlns="http://www.w3.org/2000/svg" width="330" height="330" class="segno"><path transform="scale(10)" stroke="#000" class="qrline" d="M4 4.5h7m1 0h1m2 0h3m4 0h7m-25 1h1m5 0h1m4 0h1m2 0h1m1 0h1m1 0h1m5 0h1m-25 1h1m1 0h3m1 0h1m1 0h2m1 0h6m1 0h1m1 0h3m1 0h1m-25 1h1m1 0h3m1 0h1m2 0h2m1 0h3m3 0h1m1 0h3m1 0h1m-25 1h1m1 0h3m1 0h1m2 0h1m2 0h1m1 0h1m3 0h1m1 0h3m1 0h1m-25 1h1m5 0h1m1 0h1m1 0h3m3 0h1m1 0h1m5 0h1m-25 1h7m1 0h1m1 0h1m1 0h1m1 0h1m1 0h1m1 0h7m-16 1h1m1 0h1m2 0h3m-17 1h1m1 0h1m3 0h2m1 0h4m2 0h2m2 0h1m2 0h1m1 0h1m-25 1h6m1 0h2m3 0h2m1 0h2m1 0h2m2 0h1m1 0h1m-25 1h2m1 0h1m1 0h3m1 0h1m1 0h1m3 0h1m4 0h1m1 0h1m1 0h1m-25 1h4m5 0h1m4 0h1m3 0h1m1 0h2m2 0h1m-25 1h1m2 0h5m1 0h4m3 0h1m1 0h3m2 0h2m-24 1h3m1 0h1m2 0h1m3 0h2m1 0h5m1 0h1m1 0h2m-25 1h4m2 0h1m3 0h1m1 0h1m2 0h2m1 0h4m2 0h1m-23 1h2m1 0h1m1 0h6m3 0h1m1 0h1m2 0h1m-22 1h2m1 0h4m2 0h2m4 0h7m1 0h2m-17 1h3m3 0h3m3 0h1m2 0h1m-24 1h7m1 0h4m2 0h1m1 0h1m1 0h1m1 0h1m1 0h1m1 0h1m-25 1h1m5 0h1m7 0h3m3 0h2m2 0h1m-25 1h1m1 0h3m1 0h1m4 0h10m3 0h1m-25 1h1m1 0h3m1 0h1m3 0h1m1 0h1m2 0h3m2 0h2m1 0h1m-24 1h1m1 0h3m1 0h1m1 0h1m3 0h6m1 0h6m-25 1h1m5 0h1m3 0h3m2 0h3m1 0h1m1 0h1m-22 1h7m1 0h2m2 0h3m1 0h1m1 0h1m1 0h2m2 0h1"/></svg>
