<?xml version="1.0" encoding="utf-8"?>
<svg xmlns="http://www.w3.org/2000/svg" width="165" height="165" class="segno"><g transform="scale(5)"><path fill="#fff" d="M0 0h33v33h-33z"/><path class="qrline" stroke="#000" d="M4 4.5h7m2 0h1m3 0h1m2 0h1m1 0h7m-25 1h1m5 0h1m1 0h2m1 0h2m2 0h1m2 0h1m5 0h1m-25 1h1m1 0h3m1 0h1m2 0h3m2 0h3m1 0h1m1 0h3m1 0h1m-25 1h1m1 0h3m1 0h1m1 0h2m1 0h1m1 0h3m2 0h1m1 0h3m1 0h1m-25 1h1m1 0h3m1 0h1m3 0h1m1 0h2m2 0h1m1 0h1m1 0h3m1 0h1m-25 1h1m5 0h1m1 0h1m1 0h1m2 0h3m2 0h1m5 0h1m-25 1h7m1 0h1m1 0h1m1 0h1m1 0h1m1 0h1m1 0h7m-13 1h1m3 0h1m-17 1h5m1 0h5m1 0h3m2 0h1m1 0h1m1 0h1m1 0h1m-22 1h1m1 0h1m3 0h2m6 0h1m2 0h1m-20 1h1m5 0h4m1 0h6m1 0h1m4 0h2m-22 1h1m3 0h5m2 0h2m1 0h2m2 0h1m2 0h1m-25 1h3m2 0h3m1 0h1m1 0h3m3 0h2m1 0h3m-23 1h1m1 0h2m1 0h1m1 0h1m2 0h1m1 0h1m3 0h1m4 0h1m-22 1h1m3 0h3m1 0h3m1 0h1m2 0h3m1 0h3m1 0h2m-25 1h1m1 0h2m1 0h1m6 0h1m3 0h1m2 0h1m4 0h1m-25 1h1m1 0h1m1 0h1m1 0h2m1 0h2m1 0h1m1 0h8m1 0h2m-17 1h1m1 0h1m1 0h1m1 0h1m1 0h1m3 0h1m1 0h3m-25 1h7m1 0h1m3 0h2m1 0h2m1 0h1m1 0h2m1 0h2m-25 1h1m5 0h1m2 0h1m6 0h1m3 0h1m2 0h2m-25 1h1m1 0h3m1 0h1m1 0h3m1 0h11m-23 1h1m1 0h3m1 0h1m1 0h4m1 0h1m1 0h1m1 0h2m1 0h1m1 0h3m-25 1h1m1 0h3m1 0h1m1 0h1m4 0h3m3 0h1m2 0h1m1 0h1m-25 1h1m5 0h1m1 0h3m1 0h1m1 0h5m1 0h1m3 0h1m-25 1h7m1 0h1m3 0h4m2 0h7"/></g></svg>
