<?xml version="1.0" encoding="utf-8"?>
<svg xmlns="http://www.w3.org/2000/svg" width="290" height="290" class="segno"><g transform="scale(10)"><path fill="#fff" d="M0 0h29v29h-29z"/><path class="qrline" stroke="#000" d="M4 4.5h7m1 0h1m2 0h1m2 0h7m-21 1h1m5 0h1m7 0h1m5 0h1m-21 1h1m1 0h3m1 0h1m3 0h3m1 0h1m1 0h3m1 0h1m-21 1h1m1 0h3m1 0h1m1 0h1m1 0h3m1 0h1m1 0h3m1 0h1m-21 1h1m1 0h3m1 0h1m4 0h1m2 0h1m1 0h3m1 0h1m-21 1h1m5 0h1m2 0h2m1 0h1m1 0h1m5 0h1m-21 1h7m1 0h1m1 0h1m1 0h1m1 0h7m-12 1h2m1 0h1m-11 1h1m1 0h3m1 0h3m1 0h2m3 0h1m2 0h1m-18 1h1m3 0h1m1 0h4m2 0h1m1 0h4m-20 1h2m1 0h1m1 0h1m1 0h2m2 0h1m1 0h2m1 0h4m-20 1h2m4 0h1m3 0h1m3 0h3m-18 1h2m3 0h4m1 0h1m2 0h3m4 0h1m-13 1h2m1 0h3m1 0h1m1 0h1m1 0h1m-20 1h7m3 0h2m1 0h2m1 0h1m1 0h3m-21 1h1m5 0h1m1 0h1m1 0h6m-16 1h1m1 0h3m1 0h1m1 0h6m2 0h1m1 0h3m-21 1h1m1 0h3m1 0h1m3 0h1m2 0h1m1 0h1m3 0h1m-20 1h1m1 0h3m1 0h1m1 0h2m2 0h3m1 0h1m1 0h1m1 0h1m-21 1h1m5 0h1m6 0h2m4 0h1m-20 1h7m5 0h1m1 0h4m1 0h2"/></g></svg>
