<?xml version="1.0" encoding="utf-8"?>
<svg xmlns="http://www.w3.org/2000/svg" width="95" height="95" class="segno"><path transform="scale(5)" stroke="#000" class="qrline" d="M2 2.5h7m1 0h1m1 0h1m1 0h1m1 0h1m-15 1h1m5 0h1m1 0h3m1 0h3m-15 1h1m1 0h3m1 0h1m2 0h2m3 0h1m-15 1h1m1 0h3m1 0h1m2 0h3m-12 1h1m1 0h3m1 0h1m1 0h1m1 0h3m1 0h1m-15 1h1m5 0h1m2 0h1m2 0h2m-14 1h7m1 0h1m1 0h1m3 0h1m-7 1h1m1 0h1m1 0h2m-14 1h1m5 0h4m1 0h2m1 0h1m-14 1h3m3 0h1m3 0h4m-15 1h2m1 0h1m1 0h1m1 0h1m1 0h3m-11 1h4m4 0h3m1 0h1m-14 1h2m2 0h1m1 0h1m1 0h1m3 0h1m1 0h1m-14 1h1m1 0h6m3 0h1m1 0h1m-15 1h1m3 0h2m2 0h4m2 0h1"/></svg>
