<?xml version="1.0" encoding="utf-8"?>
<svg xmlns="http://www.w3.org/2000/svg" width="190" height="190" class="segno"><g transform="scale(10)"><path fill="#fff" d="M0 0h19v19h-19z"/><path class="qrline" stroke="#000" d="M2 2.5h7m1 0h1m1 0h1m1 0h1m1 0h1m-15 1h1m5 0h1m2 0h2m1 0h3m-15 1h1m1 0h3m1 0h1m2 0h6m-15 1h1m1 0h3m1 0h1m3 0h1m1 0h1m1 0h1m-15 1h1m1 0h3m1 0h1m2 0h2m1 0h3m-15 1h1m5 0h1m1 0h5m1 0h1m-15 1h7m1 0h1m1 0h1m1 0h2m-5 1h1m1 0h1m2 0h1m-15 1h1m3 0h2m2 0h1m1 0h3m-11 1h3m5 0h3m1 0h1m-15 1h10m1 0h2m1 0h1m-14 1h2m1 0h1m1 0h1m3 0h4m-14 1h2m1 0h1m1 0h2m1 0h5m1 0h1m-14 1h1m1 0h6m3 0h1m1 0h1m-15 1h2m2 0h1m1 0h5m1 0h3"/></g></svg>
