<?xml version="1.0" encoding="utf-8"?>
<svg xmlns="http://www.w3.org/2000/svg" width="84" height="84" class="segno"><g transform="scale(4)"><path fill="#eee" d="M0 0h21v21h-21z"/><path class="qrline" stroke="#00008b" d="M2 2.5h7m1 0h1m1 0h1m1 0h1m1 0h1m1 0h1m-17 1h1m5 0h1m1 0h2m3 0h1m1 0h1m-16 1h1m1 0h3m1 0h1m2 0h1m2 0h2m2 0h1m-17 1h1m1 0h3m1 0h1m1 0h9m-17 1h1m1 0h3m1 0h1m2 0h1m2 0h3m1 0h1m-17 1h1m5 0h1m1 0h2m2 0h1m2 0h1m-16 1h7m1 0h2m1 0h3m1 0h2m-8 1h1m1 0h2m3 0h1m-17 1h1m2 0h1m1 0h3m2 0h1m1 0h3m1 0h1m-16 1h3m2 0h1m1 0h2m1 0h1m1 0h1m-14 1h2m2 0h1m1 0h2m3 0h6m-16 1h3m2 0h3m1 0h1m1 0h4m-16 1h2m3 0h2m3 0h1m1 0h1m1 0h1m1 0h1m-14 1h1m1 0h1m1 0h1m3 0h3m2 0h1m-17 1h1m2 0h1m1 0h1m3 0h5m-12 1h1m3 0h3m-9 1h2m2 0h1m1 0h1m1 0h3m1 0h1m3 0h1"/></g></svg>
