<?xml version="1.0" encoding="utf-8"?>
<svg xmlns="http://www.w3.org/2000/svg" width="29" height="29" class="segno"><path stroke="#000" class="qrline" d="M4 4.5h7m4 0h1m2 0h7m-21 1h1m5 0h1m1 0h5m1 0h1m5 0h1m-21 1h1m1 0h3m1 0h1m4 0h1m2 0h1m1 0h3m1 0h1m-21 1h1m1 0h3m1 0h1m1 0h4m2 0h1m1 0h3m1 0h1m-21 1h1m1 0h3m1 0h1m7 0h1m1 0h3m1 0h1m-21 1h1m5 0h1m1 0h1m2 0h2m1 0h1m5 0h1m-21 1h7m1 0h1m1 0h1m1 0h1m1 0h7m-12 1h1m2 0h1m-13 1h5m1 0h4m1 0h1m1 0h1m1 0h1m1 0h1m1 0h1m-20 1h2m1 0h2m3 0h3m1 0h2m2 0h1m1 0h1m1 0h1m-21 1h3m1 0h5m2 0h2m4 0h3m-20 1h1m1 0h3m2 0h1m2 0h1m1 0h2m3 0h4m-21 1h4m2 0h1m1 0h2m2 0h1m1 0h4m-10 1h3m2 0h1m1 0h5m-20 1h7m1 0h1m1 0h1m1 0h2m4 0h2m-20 1h1m5 0h1m2 0h2m4 0h1m1 0h3m-20 1h1m1 0h3m1 0h1m1 0h5m1 0h1m1 0h1m-17 1h1m1 0h3m1 0h1m1 0h1m6 0h5m-20 1h1m1 0h3m1 0h1m1 0h2m1 0h2m4 0h2m-19 1h1m5 0h1m1 0h1m2 0h1m1 0h1m1 0h1m1 0h2m-19 1h7m1 0h1m1 0h2m4 0h1m2 0h1"/></svg>
