<?xml version="1.0" encoding="utf-8"?>
<svg xmlns="http://www.w3.org/2000/svg" width="148" height="148" class="segno"><path transform="scale(4)" class="qrline" stroke="#00f" stroke-opacity="0.8" d="M4 4.5h7m1 0h2m1 0h1m1 0h1m2 0h3m1 0h1m1 0h7m-29 1h1m5 0h1m1 0h1m4 0h1m2 0h2m2 0h1m1 0h1m5 0h1m-29 1h1m1 0h3m1 0h1m3 0h4m2 0h1m2 0h1m2 0h1m1 0h3m1 0h1m-29 1h1m1 0h3m1 0h1m1 0h2m3 0h3m1 0h1m4 0h1m1 0h3m1 0h1m-29 1h1m1 0h3m1 0h1m2 0h1m1 0h2m1 0h4m1 0h2m1 0h1m1 0h3m1 0h1m-29 1h1m5 0h1m3 0h5m1 0h1m1 0h3m1 0h1m5 0h1m-29 1h7m1 0h1m1 0h1m1 0h1m1 0h1m1 0h1m1 0h1m1 0h1m1 0h7m-21 1h5m1 0h2m1 0h2m1 0h1m-21 1h1m1 0h2m1 0h3m1 0h5m2 0h3m1 0h1m1 0h1m2 0h1m1 0h2m-29 1h1m3 0h2m1 0h6m2 0h2m1 0h11m-28 1h2m1 0h6m1 0h1m2 0h1m2 0h1m2 0h2m-17 1h1m2 0h1m1 0h4m2 0h1m1 0h3m4 0h1m2 0h1m-29 1h2m4 0h1m4 0h1m3 0h1m1 0h1m1 0h1m4 0h1m1 0h1m-25 1h2m3 0h2m1 0h1m2 0h3m1 0h3m1 0h4m1 0h3m-23 1h3m2 0h2m1 0h1m1 0h2m1 0h2m1 0h1m1 0h2m1 0h2m-28 1h1m5 0h7m4 0h1m1 0h1m1 0h1m1 0h2m2 0h1m-29 1h2m2 0h1m1 0h1m2 0h1m1 0h2m5 0h1m1 0h1m3 0h4m-25 1h1m1 0h1m2 0h2m1 0h3m1 0h1m2 0h1m1 0h1m2 0h1m1 0h1m-26 1h1m1 0h2m2 0h1m3 0h3m2 0h2m4 0h1m1 0h2m-23 1h1m1 0h1m2 0h1m2 0h1m1 0h1m3 0h2m1 0h1m5 0h4m-28 1h2m1 0h6m1 0h3m3 0h2m1 0h7m1 0h1m-21 1h3m1 0h3m1 0h1m3 0h1m3 0h2m-26 1h7m1 0h2m3 0h1m5 0h2m1 0h1m1 0h4m-28 1h1m5 0h1m1 0h5m5 0h1m1 0h1m3 0h1m-25 1h1m1 0h3m1 0h1m7 0h1m2 0h2m1 0h7m-27 1h1m1 0h3m1 0h1m1 0h3m2 0h5m1 0h1m1 0h1m1 0h2m1 0h1m1 0h1m-29 1h1m1 0h3m1 0h1m1 0h1m1 0h1m1 0h1m1 0h1m5 0h1m1 0h2m1 0h1m2 0h1m-29 1h1m5 0h1m4 0h1m2 0h1m3 0h1m1 0h1m1 0h1m1 0h2m1 0h1m-28 1h7m1 0h2m1 0h2m1 0h1m2 0h4m2 0h1m1 0h1m1 0h1"/></svg>
