<?xml version="1.0" encoding="utf-8"?>
<svg xmlns="http://www.w3.org/2000/svg" width="165" height="165" class="segno"><path transform="scale(5)" stroke="#000" class="qrline" d="M4 4.5h7m2 0h1m2 0h2m4 0h7m-25 1h1m5 0h1m2 0h2m2 0h2m3 0h1m5 0h1m-25 1h1m1 0h3m1 0h1m2 0h3m2 0h1m3 0h1m1 0h3m1 0h1m-25 1h1m1 0h3m1 0h1m1 0h1m3 0h3m3 0h1m1 0h3m1 0h1m-25 1h1m1 0h3m1 0h1m1 0h2m2 0h1m2 0h1m2 0h1m1 0h3m1 0h1m-25 1h1m5 0h1m2 0h2m1 0h5m1 0h1m5 0h1m-25 1h7m1 0h1m1 0h1m1 0h1m1 0h1m1 0h1m1 0h7m-14 1h2m2 0h2m-17 1h2m3 0h3m1 0h1m4 0h3m3 0h2m-21 1h1m3 0h1m5 0h1m5 0h8m-24 1h4m1 0h1m2 0h1m1 0h3m1 0h1m1 0h7m-24 1h1m3 0h1m2 0h1m3 0h1m3 0h2m2 0h1m3 0h2m-22 1h2m1 0h1m2 0h8m1 0h1m3 0h3m-25 1h1m8 0h1m7 0h1m1 0h3m2 0h1m-25 1h1m1 0h2m1 0h3m2 0h1m2 0h2m2 0h2m1 0h1m1 0h3m-25 1h1m1 0h1m1 0h2m1 0h1m1 0h3m1 0h3m3 0h2m1 0h1m1 0h1m-25 1h1m1 0h2m1 0h3m4 0h1m2 0h6m1 0h1m-15 1h2m2 0h1m3 0h1m3 0h1m2 0h1m-24 1h7m1 0h1m1 0h3m2 0h2m1 0h1m1 0h2m1 0h2m-25 1h1m5 0h1m1 0h5m2 0h2m3 0h1m2 0h1m-24 1h1m1 0h3m1 0h1m3 0h1m3 0h8m2 0h1m-25 1h1m1 0h3m1 0h1m2 0h1m5 0h1m4 0h3m-23 1h1m1 0h3m1 0h1m3 0h1m1 0h3m3 0h1m1 0h1m1 0h1m1 0h1m-25 1h1m5 0h1m1 0h1m1 0h2m2 0h1m3 0h1m1 0h2m1 0h1m-24 1h7m1 0h5m1 0h4m2 0h5"/></svg>
