<?xml version="1.0" encoding="utf-8"?>
<svg xmlns="http://www.w3.org/2000/svg" width="29cm" height="29cm" viewBox="0 0 29 29" class="segno"><path class="qrline" stroke="#000" d="M4 4.5h7m3 0h3m1 0h7m-21 1h1m5 0h1m4 0h2m1 0h1m5 0h1m-21 1h1m1 0h3m1 0h1m3 0h1m1 0h1m1 0h1m1 0h3m1 0h1m-21 1h1m1 0h3m1 0h1m1 0h5m1 0h1m1 0h3m1 0h1m-21 1h1m1 0h3m1 0h1m4 0h2m1 0h1m1 0h3m1 0h1m-21 1h1m5 0h1m1 0h1m3 0h1m1 0h1m5 0h1m-21 1h7m1 0h1m1 0h1m1 0h1m1 0h7m-13 1h2m-9 1h2m3 0h1m3 0h2m2 0h2m1 0h1m-18 1h1m1 0h4m2 0h1m1 0h2m1 0h1m1 0h2m1 0h1m1 0h1m-21 1h3m3 0h2m3 0h1m1 0h2m1 0h3m1 0h1m-21 1h1m1 0h3m4 0h3m1 0h1m1 0h1m1 0h1m-18 1h1m2 0h1m1 0h4m4 0h1m1 0h3m2 0h1m-13 1h1m1 0h2m1 0h2m1 0h2m1 0h1m-20 1h7m2 0h1m1 0h4m1 0h1m1 0h1m1 0h1m-21 1h1m5 0h1m3 0h2m1 0h1m1 0h1m3 0h2m-21 1h1m1 0h3m1 0h1m3 0h1m2 0h1m2 0h2m1 0h1m-20 1h1m1 0h3m1 0h1m2 0h2m2 0h1m2 0h1m-17 1h1m1 0h3m1 0h1m1 0h2m1 0h2m1 0h1m1 0h5m-21 1h1m5 0h1m1 0h1m1 0h4m2 0h2m-18 1h7m3 0h3m2 0h4m1 0h1"/></svg>
