<?xml version="1.0" encoding="utf-8"?>
<svg xmlns="http://www.w3.org/2000/svg" width="68" height="68" class="segno"><path transform="scale(4)" class="qrline" stroke="#000" d="M0 0.5h7m1 0h1m1 0h1m1 0h1m1 0h1m1 0h1m-17 1h1m5 0h1m2 0h1m1 0h1m1 0h1m1 0h1m-16 1h1m1 0h3m1 0h1m2 0h1m2 0h1m-13 1h1m1 0h3m1 0h1m2 0h1m1 0h2m3 0h1m-17 1h1m1 0h3m1 0h1m1 0h1m1 0h1m1 0h3m1 0h1m-17 1h1m5 0h1m2 0h1m3 0h1m1 0h1m-16 1h7m6 0h1m1 0h2m-5 1h1m1 0h1m1 0h1m-17 1h1m1 0h1m2 0h1m1 0h1m4 0h1m1 0h1m1 0h1m-10 1h1m1 0h2m1 0h2m2 0h1m-17 1h1m3 0h1m4 0h4m3 0h1m-15 1h2m3 0h1m2 0h1m4 0h1m-16 1h3m2 0h1m1 0h1m2 0h1m1 0h2m2 0h1m-16 1h1m2 0h1m2 0h3m3 0h1m1 0h1m-16 1h1m4 0h3m1 0h1m1 0h3m-12 1h1m3 0h1m1 0h1m1 0h1m1 0h2m-14 1h1m1 0h1m1 0h1m2 0h1m2 0h3m1 0h1m1 0h1"/></svg>
